<svg width="32" height="32" viewBox="0 0 32 32" fill="none" xmlns="http://www.w3.org/2000/svg">
<path fill-rule="evenodd" clip-rule="evenodd" d="M6 0C2.68629 0 0 2.68628 0 6V26C0 29.3137 2.68629 32 6 32H26C29.3137 32 32 29.3137 32 26V6C32 2.68628 29.3137 0 26 0H6ZM10.6308 11.1619C10.6308 8.31543 12.9466 6 15.7933 6C18.6399 6 20.9545 8.31543 20.9545 11.1619C20.9545 14.0081 18.6399 16.3225 15.7933 16.3225C12.9466 16.3225 10.6308 14.0081 10.6308 11.1619ZM17.9295 11.1619C17.9295 9.9837 16.9715 9.02435 15.7933 9.02435C14.6149 9.02435 13.6558 9.9837 13.6558 11.1619C13.6558 12.3395 14.6149 13.2982 15.7933 13.2982C16.9715 13.2982 17.9295 12.3395 17.9295 11.1619ZM10.2327 17.2062C10.524 16.7419 11.0263 16.4902 11.537 16.4981C11.8046 16.5023 12.0745 16.5781 12.3177 16.7313C14.4304 18.0598 17.1536 18.0607 19.267 16.7313C19.9747 16.2856 20.9077 16.4988 21.3533 17.2062C21.7984 17.9126 21.5848 18.847 20.8777 19.2919C19.9448 19.8779 18.9316 20.2936 17.8808 20.5331L20.7671 23.4188C21.3579 24.0084 21.3579 24.9664 20.7671 25.5569C20.1759 26.1476 19.219 26.1476 18.6289 25.5569L15.7921 22.7213L12.9577 25.5569C12.6625 25.8522 12.275 26 11.8883 26C11.5012 26 11.115 25.8524 10.8189 25.5575C10.2282 24.9666 10.2277 24.0096 10.8183 23.4188L13.7033 20.5325C12.6528 20.293 11.6399 19.8775 10.7064 19.2919C10.0007 18.847 9.78739 17.9136 10.2327 17.2062Z" fill="#767676"/>
</svg>
