<svg width="32" height="32" viewBox="0 0 32 32" fill="none" xmlns="http://www.w3.org/2000/svg">
<path fill-rule="evenodd" clip-rule="evenodd" d="M6 0C2.68629 0 0 2.68628 0 6V26C0 29.3137 2.68629 32 6 32H26C29.3137 32 32 29.3137 32 26V6C32 2.68628 29.3137 0 26 0H6ZM23.7724 8.01263C23.5212 7.97913 23.2655 8.01251 23.0319 8.10944L6.86676 14.8188C5.73993 15.2866 5.68226 16.8932 6.86771 17.3777C7.74498 17.7365 8.81982 18.0309 9.97879 18.2211C10.6141 18.3254 11.1453 18.2211 12.1644 17.6097C13.3196 16.9164 16.8126 14.4536 18.9897 12.834C19.866 12.1817 20.2044 12.5908 19.4624 13.2999C19.2052 13.5455 18.9217 13.8138 18.6234 14.0962C16.7289 15.8897 14.2347 18.2509 14.0551 18.9489C13.8131 19.8937 15.7822 21.2217 16.425 21.6364C17.7107 22.4648 19.14 23.2587 20.1023 23.774C21.2528 24.39 22.6292 23.6808 22.8372 22.4443L24.9812 9.62469C25.0223 9.37811 24.9957 9.12524 24.904 8.89227C24.8124 8.65936 24.659 8.4549 24.46 8.30017C24.261 8.14551 24.0236 8.0462 23.7724 8.01263Z" fill="#767676"/>
</svg>
