<svg width="41" height="40" viewBox="0 0 41 40" fill="none" xmlns="http://www.w3.org/2000/svg">
<mask id="mask0_63_222" style="mask-type:alpha" maskUnits="userSpaceOnUse" x="0" y="0" width="41" height="40">
<path fill-rule="evenodd" clip-rule="evenodd" d="M0 0H40.0044V40H0V0Z" fill="white"/>
</mask>
<g mask="url(#mask0_63_222)">
<path fill-rule="evenodd" clip-rule="evenodd" d="M35.8317 4.18146C32.0579 0.420776 26.6316 0 20 0C13.3596 0 7.92899 0.425159 4.15516 4.19461C0.381328 7.96406 0 13.3903 0 20.0219C0 26.6535 0.381328 32.0842 4.15516 35.8536C7.92899 39.6231 13.3596 40.0044 20 40.0044C26.6404 40.0044 32.071 39.6231 35.8448 35.8536C39.6187 32.0842 40 26.6579 40 20.0219C40.0044 13.3815 39.6143 7.94653 35.8317 4.18146Z" fill="#3D39FC"/>
<path fill-rule="evenodd" clip-rule="evenodd" d="M18.5272 27.4118C18.5272 27.5477 18.4133 27.6572 18.2774 27.6572H14.8674C14.7271 27.6572 14.6132 27.5477 14.6132 27.4118V18.4922C14.6132 18.3563 14.7271 18.2468 14.8674 18.2468H18.2774C18.4133 18.2468 18.5272 18.3563 18.5272 18.4922V27.4118ZM25.2071 27.4118C25.2071 27.5477 25.0931 27.6572 24.9572 27.6572H21.7094C21.5691 27.6572 21.4551 27.5477 21.4551 27.4118V27.3767V19.7151C21.4508 18.3695 21.3762 16.9888 20.6793 16.2963C20.0832 15.7002 18.9699 15.5599 17.8128 15.5336H11.9307C11.7905 15.5336 11.6809 15.6432 11.6809 15.7791V26.6097V27.4162C11.6809 27.552 11.5669 27.6616 11.4267 27.6616H8.17879C8.03853 27.6616 7.92896 27.552 7.92896 27.4162V12.5882C7.92896 12.4523 8.03853 12.3427 8.17879 12.3427H17.5542C20.0043 12.3427 22.5641 12.4523 23.8308 13.719C25.0975 14.9901 25.2114 17.5455 25.2114 20V27.4118H25.2071Z" fill="white"/>
<path fill-rule="evenodd" clip-rule="evenodd" d="M31.8956 27.4118C31.8956 27.5477 31.7816 27.6572 31.6414 27.6572H28.3935C28.2533 27.6572 28.1437 27.5477 28.1437 27.4118V12.5882C28.1437 12.4523 28.2576 12.3427 28.3935 12.3427H31.6458C31.7816 12.3427 31.9 12.4523 31.9 12.5882V27.4118H31.8956Z" fill="white"/>
</g>
</svg>
