<svg width="32" height="32" fill="none" xmlns="http://www.w3.org/2000/svg"><path fill-rule="evenodd" clip-rule="evenodd" d="M6 0a6 6 0 0 0-6 6v20a6 6 0 0 0 6 6h20a6 6 0 0 0 6-6V6a6 6 0 0 0-6-6H6Zm4.63 11.162A5.168 5.168 0 0 1 15.794 6a5.167 5.167 0 0 1 5.162 5.162 5.166 5.166 0 0 1-5.162 5.16 5.167 5.167 0 0 1-5.162-5.16Zm7.3 0a2.14 2.14 0 0 0-2.137-2.138 2.14 2.14 0 0 0-2.137 2.138 2.14 2.14 0 0 0 2.137 2.136 2.139 2.139 0 0 0 2.137-2.136Zm-7.697 6.044a1.51 1.51 0 0 1 2.085-.475 6.555 6.555 0 0 0 6.949 0 1.512 1.512 0 1 1 1.61 2.56 9.67 9.67 0 0 1-2.996 1.242l2.886 2.886a1.511 1.511 0 1 1-2.138 2.138l-2.837-2.836-2.834 2.836a1.51 1.51 0 0 1-2.139 0 1.512 1.512 0 0 1 0-2.138l2.884-2.887a9.688 9.688 0 0 1-2.997-1.24 1.513 1.513 0 0 1-.473-2.086Z" fill="#767676"/></svg>