<svg width="32" height="32" fill="none" xmlns="http://www.w3.org/2000/svg"><path fill-rule="evenodd" clip-rule="evenodd" d="M6 0a6 6 0 0 0-6 6v20a6 6 0 0 0 6 6h20a6 6 0 0 0 6-6V6a6 6 0 0 0-6-6H6Zm17.772 8.013c-.25-.034-.506 0-.74.096L6.867 14.82c-1.127.468-1.185 2.074 0 2.559.878.358 1.953.653 3.112.843.635.104 1.166 0 2.185-.611 1.156-.694 4.649-3.156 6.826-4.776.876-.652 1.214-.243.472.466-.257.245-.54.514-.839.796-1.894 1.794-4.388 4.155-4.568 4.853-.242.945 1.727 2.273 2.37 2.687 1.286.829 2.715 1.623 3.677 2.138a1.873 1.873 0 0 0 2.735-1.33l2.144-12.82A1.38 1.38 0 0 0 24.46 8.3a1.429 1.429 0 0 0-.688-.287Z" fill="#767676"/></svg>