<svg width="41" height="40" fill="none" xmlns="http://www.w3.org/2000/svg"><mask id="a" style="mask-type:alpha" maskUnits="userSpaceOnUse" x="0" y="0" width="41" height="40"><path fill-rule="evenodd" clip-rule="evenodd" d="M0 0h40.004v40H0V0Z" fill="#fff"/></mask><g mask="url(#a)" fill-rule="evenodd" clip-rule="evenodd"><path d="M35.832 4.181C32.058.421 26.632 0 20 0 13.36 0 7.929.425 4.155 4.195.381 7.965 0 13.39 0 20.022s.381 12.062 4.155 15.832c3.774 3.77 9.205 4.15 15.845 4.15 6.64 0 12.071-.38 15.845-4.15C39.619 32.084 40 26.658 40 20.022c.004-6.64-.386-12.075-4.168-15.84Z" fill="#3D39FC"/><path d="M18.527 27.412a.249.249 0 0 1-.25.245h-3.41a.25.25 0 0 1-.254-.245v-8.92a.25.25 0 0 1 .254-.245h3.41c.136 0 .25.11.25.245v8.92Zm6.68 0a.249.249 0 0 1-.25.245H21.71a.25.25 0 0 1-.254-.245v-7.697c-.004-1.346-.079-2.726-.776-3.419-.596-.596-1.71-.736-2.866-.762H11.93c-.14 0-.25.11-.25.245v11.637a.25.25 0 0 1-.254.246H8.179c-.14 0-.25-.11-.25-.246V12.588c0-.136.11-.245.25-.245h9.375c2.45 0 5.01.11 6.277 1.376 1.267 1.271 1.38 3.827 1.38 6.281v7.412h-.004Zm6.689 0a.25.25 0 0 1-.255.245h-3.247c-.14 0-.25-.11-.25-.245V12.588c0-.136.114-.245.25-.245h3.252c.136 0 .254.11.254.245v14.824h-.004Z" fill="#fff"/></g></svg>